<?xml version="1.0" encoding="iso-8859-1"?>
<!-- Generator: Adobe Illustrator 19.0.0, SVG Export Plug-In . SVG Version: 6.00 Build 0)  -->
<svg version="1.1" id="Capa_1" xmlns="http://www.w3.org/2000/svg" xmlns:xlink="http://www.w3.org/1999/xlink" x="0px" y="0px"
	 viewBox="0 0 512 512" style="enable-background:new 0 0 512 512;" xml:space="preserve">
<g>
	<g>
		<path d="M125.858,30H431V0H125.858C101.123,0,81,20.187,81,45v422c0,24.813,20.187,45,45,45h305V60H125.858
			C117.665,60,111,53.271,111,45S117.665,30,125.858,30z M125.858,90H401v392H126c-8.271,0-15-6.729-15-15V87.463
			C115.652,89.106,120.652,90,125.858,90z"/>
	</g>
</g>
<g>
	<g>
		<path d="M192,182.384v192.231L356.77,278.5L192,182.384z M222,234.616l75.23,43.884L222,322.384V234.616z"/>
	</g>
</g>
<g>
</g>
<g>
</g>
<g>
</g>
<g>
</g>
<g>
</g>
<g>
</g>
<g>
</g>
<g>
</g>
<g>
</g>
<g>
</g>
<g>
</g>
<g>
</g>
<g>
</g>
<g>
</g>
<g>
</g>
</svg>
